<svg width="50" height="50" viewBox="0 0 50 50" fill="none" xmlns="http://www.w3.org/2000/svg">
<path d="M9 4C6.24 4 4 6.24 4 9V41C4 43.76 6.24 46 9 46H41C43.76 46 46 43.76 46 41V9C46 6.24 43.76 4 41 4H9ZM15 8H17.4004L19 12L20.5996 8H23L20 15V19H18V14.9902C17.4 13.3802 15.41 9.01 15 8ZM25 11C25.89 11 26.7701 11.2692 27.3301 11.9492C27.7601 12.4392 28 13.2295 28 14.2695V15.7305C28 16.7705 27.8009 17.4905 27.3809 17.9805C26.8209 18.6505 25.89 19 25 19C24.11 19 23.2006 18.6505 22.6406 17.9805C22.2106 17.4905 22 16.7705 22 15.7305V14.2793C22 13.2393 22.2299 12.4392 22.6699 11.9492C23.2299 11.2692 23.99 11 25 11ZM29 11H31V17C31.05 17.27 31.3394 17.3906 31.6094 17.3906C32.0194 17.3906 32.54 16.9109 33 16.3809V11H35V19H33V17.6191C32.19 18.4091 31.4998 19.0007 30.5898 18.9707C29.9298 18.9507 29.4702 18.7105 29.2402 18.2305C29.1002 17.9505 29 17.4998 29 16.8398L29 11ZM25 12.6191C24.8625 12.6191 24.7309 12.6493 24.6113 12.7012C24.4918 12.753 24.3836 12.8274 24.293 12.9199C24.2024 13.0124 24.1289 13.1223 24.0781 13.2441C24.0274 13.366 24 13.5006 24 13.6406V16.4492C24 16.7292 24.1117 16.9849 24.293 17.1699C24.3836 17.2624 24.4918 17.3368 24.6113 17.3887C24.7309 17.4405 24.8625 17.4707 25 17.4707C25.1375 17.4707 25.2691 17.4405 25.3887 17.3887C25.7473 17.233 26 16.8692 26 16.4492V13.6406C26 13.0806 25.55 12.6191 25 12.6191ZM24.9902 22H25.0098C25.0098 22 31.7192 22.0003 36.1992 22.3203C36.8292 22.3903 38.1901 22.4004 39.4101 23.6504C40.3701 24.5904 40.6797 26.75 40.6797 26.75C40.6797 26.75 41 28.2806 41 30.8106V33.1797C41 35.7097 40.6797 37.2402 40.6797 37.2402C40.6797 37.2402 40.3701 39.3999 39.4101 40.3399C38.1901 41.5899 36.8292 41.5999 36.1992 41.6699C31.7192 41.9899 25 42 25 42C25 42 16.6791 41.9197 14.1191 41.6797C13.4091 41.5497 11.8098 41.5896 10.5898 40.3496C9.62983 39.3996 9.3203 37.2402 9.3203 37.2402C9.3203 37.2402 8.99999 35.7097 8.99999 33.1797V30.8106C8.99999 28.2806 9.3203 26.75 9.3203 26.75C9.3203 26.75 9.62983 24.5904 10.5898 23.6504C11.8098 22.4004 13.1708 22.3903 13.8008 22.3203C18.2808 22.0003 24.9902 22 24.9902 22ZM12 26V27.9785H14V38H16V27.9785H18V26H12ZM25 26V38H27V36.75C27.631 37.531 28.453 38 29.125 38C29.877 38 30.5332 37.5953 30.7852 36.8203C30.9042 36.4013 30.992 36.01 31 35.125V32.375C31 31.387 30.8662 30.6427 30.7402 30.2227C30.4882 29.4417 29.878 29.005 29.125 29C28.145 28.993 27.75 29.5 27 30.375V26H25ZM18 29V35.6856C18 36.4076 18.1005 36.892 18.2305 37.209C18.4505 37.723 18.8991 38 19.5391 38C20.2691 38 21.21 37.4858 22 36.6348V38H24V29H22V35.2695C21.56 35.8535 20.9195 36.2891 20.5195 36.2891C20.2595 36.2891 20.05 36.1796 20 35.8926V29L18 29ZM35.0293 29C34.0213 29 33.2341 29.317 32.6641 29.916C32.2441 30.358 32 31.0806 32 32.0176V35.084C32 36.015 32.2685 36.6665 32.6875 37.1035C33.2585 37.7025 34.0442 38 35.0762 38C36.1072 38 36.9188 37.6868 37.4649 37.0508C37.7049 36.7698 37.8588 36.4536 37.9258 36.1016C37.9438 35.9426 38 35.511 38 35H36V35.7988C36 36.2628 35.552 36.6387 35 36.6387C34.448 36.6387 34 36.2618 34 35.7988V34H38V33.4238V31.9785C38 31.0435 37.7704 30.359 37.3574 29.916C36.8044 29.317 36.0193 29 35.0293 29ZM35 30.4473C35.552 30.4473 36 30.8241 36 31.2871V32.6152H34V31.2871C34 30.8231 34.448 30.4473 35 30.4473ZM28.2207 30.7461C28.7657 30.7461 29 31.081 29 32.125V34.875C29 35.919 28.7657 36.2793 28.2207 36.2793C27.9097 36.2793 27.316 36.066 27 35.75V31.375C27.316 31.063 27.9097 30.7461 28.2207 30.7461Z" fill="#FFE000"/>
</svg>
